<?xml version="1.0" encoding="UTF-8"?>
<svg version="1.1" xmlns="http://www.w3.org/2000/svg" width="495" height="238">
<path d="M0 0 C163.35 0 326.7 0 495 0 C495 78.54 495 157.08 495 238 C331.65 238 168.3 238 0 238 C0 159.46 0 80.92 0 0 Z " fill="#0181EE" transform="translate(0,0)"/>
<path d="M0 0 C4.44804073 1.40497309 8.29119232 4.06128725 12.21191406 6.53417969 C13.53255859 7.34822266 13.53255859 7.34822266 14.87988281 8.17871094 C18.22653083 10.24323437 21.55971162 12.32876033 24.89160156 14.41699219 C27.04962292 15.70872029 27.04962292 15.70872029 29.36987305 16.53979492 C34.60334806 18.69591703 39.39202951 21.75125934 44.27441406 24.59667969 C45.9324707 25.54704102 45.9324707 25.54704102 47.62402344 26.51660156 C48.67783203 27.12955078 49.73164063 27.7425 50.81738281 28.37402344 C51.7805542 28.93210693 52.74372559 29.49019043 53.73608398 30.06518555 C56.08691406 31.65917969 56.08691406 31.65917969 58.08691406 34.65917969 C59.73451787 35.37165701 61.40454935 36.03318352 63.08691406 36.65917969 C64.76314905 37.64305674 66.42867275 38.64526967 68.08691406 39.65917969 C68.96992188 40.16578125 69.85292969 40.67238281 70.76269531 41.19433594 C71.6328125 41.69835938 72.50292969 42.20238281 73.39941406 42.72167969 C74.28242188 43.22828125 75.16542969 43.73488281 76.07519531 44.25683594 C76.7390625 44.71960937 77.40292969 45.18238281 78.08691406 45.65917969 C78.08691406 46.31917969 78.08691406 46.97917969 78.08691406 47.65917969 C79.40691406 47.98917969 80.72691406 48.31917969 82.08691406 48.65917969 C82.08691406 80.00917969 82.08691406 111.35917969 82.08691406 143.65917969 C72.08691406 148.65917969 72.08691406 148.65917969 69.08691406 149.65917969 C68.42691406 150.64917969 67.76691406 151.63917969 67.08691406 152.65917969 C63.46191406 153.84667969 63.46191406 153.84667969 60.08691406 154.65917969 C60.08691406 155.31917969 60.08691406 155.97917969 60.08691406 156.65917969 C59.31347656 156.95050781 58.54003906 157.24183594 57.74316406 157.54199219 C51.02646038 160.18544735 45.65093633 163.10222028 40.08691406 167.65917969 C36.25444221 170.45369041 32.80836896 172.12900345 28.34472656 173.69042969 C24.6187581 175.28911512 21.35864113 177.58817868 17.97753906 179.80761719 C5.71982545 187.65917969 5.71982545 187.65917969 2.08691406 187.65917969 C2.08691406 188.31917969 2.08691406 188.97917969 2.08691406 189.65917969 C-0.91308594 191.65917969 -0.91308594 191.65917969 -2.97558594 191.40917969 C-4.91308594 190.65917969 -4.91308594 190.65917969 -6.91308594 188.65917969 C-8.54631587 187.97866721 -10.17992371 187.29904747 -11.81542969 186.62402344 C-15.04912799 185.13664266 -18.01566436 183.25406315 -21.04589844 181.39355469 C-25.34999189 178.78998862 -29.74200658 176.34401685 -34.12792969 173.88183594 C-34.70314362 173.52397003 -35.27835754 173.16610413 -35.8710022 172.7973938 C-37.96945353 171.55434286 -37.96945353 171.55434286 -40.6512146 170.68087769 C-44.27961833 169.08197453 -46.33915307 167.70750598 -48.91308594 164.65917969 C-51.01961724 157.69780315 -50.18658226 149.93307554 -49.98730469 142.75683594 C-49.96677593 140.59211687 -49.95112369 138.42734652 -49.94013977 136.26255798 C-49.8982347 130.57792859 -49.79027302 124.89641492 -49.668396 119.2130127 C-49.55565626 113.40838778 -49.50558521 107.60325686 -49.45019531 101.79785156 C-49.33239255 90.41692884 -49.14477707 79.03831381 -48.91308594 67.65917969 C-48.17521851 67.25832153 -47.43735107 66.85746338 -46.67712402 66.44445801 C-45.6998938 65.91267944 -44.72266357 65.38090088 -43.71582031 64.83300781 C-42.75107788 64.30839966 -41.78633545 63.7837915 -40.7923584 63.24328613 C-36.6252996 60.95067062 -32.51863216 58.5596293 -28.41308594 56.15917969 C-8.62370616 44.65917969 -8.62370616 44.65917969 -5.91308594 44.65917969 C-5.91308594 43.99917969 -5.91308594 43.33917969 -5.91308594 42.65917969 C-2.92689495 41.75125167 -1.50472899 41.35769897 1.33300781 42.80371094 C2.05617188 43.35414062 2.77933594 43.90457031 3.52441406 44.47167969 C6.96067405 46.94831523 9.93372621 48.59425972 14.08691406 49.65917969 C14.08691406 50.31917969 14.08691406 50.97917969 14.08691406 51.65917969 C14.66666992 51.78156006 15.24642578 51.90394043 15.84375 52.0300293 C18.14450183 52.67533159 19.90810904 53.54067036 21.97753906 54.72558594 C22.68652344 55.12841797 23.39550781 55.53125 24.12597656 55.94628906 C24.85558594 56.36716797 25.58519531 56.78804687 26.33691406 57.22167969 C27.08199219 57.64642578 27.82707031 58.07117188 28.59472656 58.50878906 C30.42790368 59.55464011 32.25774083 60.60634161 34.08691406 61.65917969 C34.08691406 62.31917969 34.08691406 62.97917969 34.08691406 63.65917969 C35.03566406 63.76230469 35.98441406 63.86542969 36.96191406 63.97167969 C40.08691406 64.65917969 40.08691406 64.65917969 42.08691406 67.65917969 C43.07691406 67.98917969 44.06691406 68.31917969 45.08691406 68.65917969 C45.21347847 76.15207934 45.30116629 83.64470442 45.36157227 91.13842773 C45.38674814 93.68866272 45.42089111 96.23882535 45.46411133 98.78881836 C45.52462438 102.45021393 45.55309371 106.11065737 45.57519531 109.77246094 C45.60100174 110.91628738 45.62680817 112.06011383 45.65339661 113.23860168 C45.65377426 114.29947495 45.65415192 115.36034821 45.65454102 116.45336914 C45.66564407 117.38824661 45.67674713 118.32312408 45.68818665 119.28633118 C45.08691406 121.65917969 45.08691406 121.65917969 42.75065613 123.3790741 C41.87162125 123.80150894 40.99258636 124.22394379 40.08691406 124.65917969 C39.03503906 125.21605469 37.98316406 125.77292969 36.89941406 126.34667969 C34.08691406 127.65917969 34.08691406 127.65917969 32.08691406 127.65917969 C32.08691406 128.31917969 32.08691406 128.97917969 32.08691406 129.65917969 C30.29394531 131.09667969 30.29394531 131.09667969 27.89941406 132.65917969 C27.12210937 133.17480469 26.34480469 133.69042969 25.54394531 134.22167969 C23.1079673 135.64686237 20.7214873 136.65913434 18.08691406 137.65917969 C13.22529748 139.85059019 9.23254212 142.27721996 5.08691406 145.65917969 C-0.17812892 148.77522553 -0.17812892 148.77522553 -2.84277344 148.35449219 C-4.99934404 147.63020998 -6.94990077 146.75598907 -8.97558594 145.72167969 C-9.98298828 145.21314453 -9.98298828 145.21314453 -11.01074219 144.69433594 C-12.91308594 143.65917969 -12.91308594 143.65917969 -15.91308594 141.65917969 C-15.91308594 140.99917969 -15.91308594 140.33917969 -15.91308594 139.65917969 C-17.52183594 139.50449219 -17.52183594 139.50449219 -19.16308594 139.34667969 C-22.86027969 138.66886083 -24.15610887 138.02230288 -26.91308594 135.65917969 C-27.90308594 135.32917969 -28.89308594 134.99917969 -29.91308594 134.65917969 C-29.91308594 141.58917969 -29.91308594 148.51917969 -29.91308594 155.65917969 C-27.27308594 155.98917969 -24.63308594 156.31917969 -21.91308594 156.65917969 C-20.5345949 157.94577132 -19.20779569 159.28831054 -17.91308594 160.65917969 C-13.45941918 163.23090982 -8.97152332 165.59362922 -3.91308594 166.65917969 C-3.91308594 167.31917969 -3.91308594 167.97917969 -3.91308594 168.65917969 C-2.98367187 168.18867188 -2.05425781 167.71816406 -1.09667969 167.23339844 C0.15196316 166.60438287 1.40066421 165.97548281 2.64941406 165.34667969 C3.25849609 165.03794922 3.86757812 164.72921875 4.49511719 164.41113281 C7.60173074 162.84960748 10.70775118 161.37946532 13.92285156 160.05371094 C17.17642905 158.61972678 18.65181012 157.17283537 21.08691406 154.65917969 C24.36686963 152.79556857 27.66115376 151.44926596 31.21191406 150.22167969 C34.72033225 148.95070555 36.47910073 147.34848719 39.08691406 144.65917969 C42.49047289 142.67196381 46.03172181 141.06115769 49.71191406 139.65917969 C52.29783256 138.66029159 52.29783256 138.66029159 55.14941406 136.59667969 C57.726 134.89722939 59.17480014 134.26665291 62.08691406 133.65917969 C62.20274847 124.07996286 62.29159871 114.50098698 62.34597492 104.92122269 C62.37207256 100.47294636 62.40747295 96.02514905 62.46411133 91.57714844 C62.51842624 87.28477012 62.54833334 82.9928526 62.56130028 78.70015717 C62.57054121 77.06223037 62.58858698 75.42432889 62.61556435 73.78659821 C62.6518503 71.49259394 62.65685999 69.20049493 62.65454102 66.90625 C62.6711956 64.94767059 62.6711956 64.94767059 62.68818665 62.94952393 C62.381676 59.50023221 62.381676 59.50023221 59.69889832 57.2880249 C57.28299065 55.78145393 54.91048693 54.43697799 52.33691406 53.22167969 C48.86207048 51.53374967 45.42074357 49.81338947 42.02441406 47.97167969 C41.2909375 47.5759375 40.55746094 47.18019531 39.80175781 46.77246094 C38.08691406 45.65917969 38.08691406 45.65917969 37.08691406 43.65917969 C35.43931026 42.94670237 33.76927877 42.28517586 32.08691406 41.65917969 C28.22977121 39.94489397 28.22977121 39.94489397 27.08691406 37.65917969 C25.43011354 36.96835827 23.76123043 36.30639442 22.08691406 35.65917969 C20.19421346 34.60707677 18.32010897 33.52109146 16.46191406 32.40917969 C15.41648437 31.79429688 14.37105469 31.17941406 13.29394531 30.54589844 C11.70646484 29.61197266 11.70646484 29.61197266 10.08691406 28.65917969 C8.11527938 27.50043408 6.1365102 26.35370604 4.14941406 25.22167969 C2.86744141 24.48111328 2.86744141 24.48111328 1.55957031 23.72558594 C-1.2115842 22.53044347 -2.92754765 22.28416101 -5.91308594 22.65917969 C-7.72828412 23.56373552 -7.72828412 23.56373552 -9.28808594 24.90917969 C-14.15272393 28.6230431 -18.92427316 31.33305311 -24.66308594 33.40917969 C-28.62966619 34.9338712 -31.67173243 36.82123225 -35.03808594 39.40917969 C-40.14029993 43.31386124 -45.42441063 46.02944617 -51.18945312 48.78125 C-55.71013695 50.96853696 -59.67250548 53.375641 -63.53027344 56.62792969 C-64.91308594 57.65917969 -64.91308594 57.65917969 -66.91308594 57.65917969 C-66.91308594 89.33917969 -66.91308594 121.01917969 -66.91308594 153.65917969 C-72.91308594 152.65917969 -72.91308594 152.65917969 -74.97558594 150.40917969 C-75.93464844 149.04792969 -75.93464844 149.04792969 -76.91308594 147.65917969 C-77.75871094 146.81355469 -78.60433594 145.96792969 -79.47558594 145.09667969 C-85.18222502 139.3900406 -86.0657698 135.18872102 -86.15356445 127.24389648 C-86.17305901 125.95559433 -86.17305901 125.95559433 -86.19294739 124.64126587 C-86.31950527 115.67390047 -86.37636859 106.70560606 -86.42797852 97.73754883 C-86.45475387 93.48181443 -86.50352919 89.22719542 -86.5715332 84.97192383 C-86.65344502 79.83307547 -86.69615555 74.6952919 -86.7110424 69.55582619 C-86.72329443 67.59851491 -86.7493373 65.64123908 -86.78949165 63.68430138 C-87.0882334 48.36038356 -87.0882334 48.36038356 -84.17481995 44.14277649 C-82.11294774 42.5558166 -80.34094314 41.564466 -77.91308594 40.65917969 C-76.99140625 40.211875 -76.06972656 39.76457031 -75.12011719 39.30371094 C-74.32992187 39.02914062 -73.53972656 38.75457031 -72.72558594 38.47167969 C-66.57221016 36.19463797 -66.57221016 36.19463797 -61.49511719 32.13964844 C-59.91308594 30.65917969 -59.91308594 30.65917969 -56.53808594 29.53417969 C-51.06960968 27.64709883 -46.6118642 24.16046129 -41.96386719 20.81542969 C-34.66852072 15.65917969 -34.66852072 15.65917969 -30.91308594 15.65917969 C-30.91308594 14.99917969 -30.91308594 14.33917969 -30.91308594 13.65917969 C-29.16506448 12.84243173 -27.41458405 12.03094517 -25.66308594 11.22167969 C-24.68855469 10.76921875 -23.71402344 10.31675781 -22.70996094 9.85058594 C-19.91308594 8.65917969 -19.91308594 8.65917969 -17.61621094 8.12402344 C-17.05417969 7.970625 -16.49214844 7.81722656 -15.91308594 7.65917969 C-15.58308594 6.99917969 -15.25308594 6.33917969 -14.91308594 5.65917969 C-12.28727455 4.08369286 -11.04208807 3.65917969 -7.91308594 3.65917969 C-7.91308594 2.99917969 -7.91308594 2.33917969 -7.91308594 1.65917969 C-4.7481882 -0.45075214 -3.64638857 -0.65339911 0 0 Z " fill="#F7F9FD" transform="translate(235.9130859375,16.3408203125)"/>
<path d="M0 0 C1.64935547 0.73283203 1.64935547 0.73283203 3.33203125 1.48046875 C4.48058594 2.04378906 5.62914062 2.60710937 6.8125 3.1875 C7.95332031 3.73792969 9.09414062 4.28835937 10.26953125 4.85546875 C11.51834853 5.56096385 12.76137528 6.27675955 14 7 C14.79623779 7.4132251 15.59247559 7.8264502 16.4128418 8.25219727 C20.52460589 10.77959693 22.63747939 12.60398742 23.87573242 17.37231445 C24.18675994 20.77563623 24.3110464 24.03429357 24.22827148 27.44311523 C24.18741067 29.56714345 24.24827506 31.67198202 24.31835938 33.79492188 C24.39730814 43.55064087 24.39730814 43.55064087 20.84375 47.23657227 C18.26801719 48.80954795 15.82863048 49.95915846 13 51 C12.24565674 51.31888184 11.49131348 51.63776367 10.71411133 51.96630859 C7.53908903 53.25234661 4.32474799 54.20176755 1 55 C1 55.66 1 56.32 1 57 C-2.41205596 59.09972674 -5.0300247 59.33083127 -9 59 C-11.375 58 -11.375 58 -13 57 C-13 56.34 -13 55.68 -13 55 C-14.65 54.67 -16.3 54.34 -18 54 C-18 53.34 -18 52.68 -18 52 C-18.95712891 51.81824219 -18.95712891 51.81824219 -19.93359375 51.6328125 C-20.75988281 51.46523437 -21.58617187 51.29765625 -22.4375 51.125 C-23.26121094 50.96257812 -24.08492187 50.80015625 -24.93359375 50.6328125 C-25.61550781 50.42398438 -26.29742187 50.21515625 -27 50 C-27.33 49.34 -27.66 48.68 -28 48 C-28.8355542 47.6186792 -29.6711084 47.2373584 -30.53198242 46.84448242 C-33 45 -33 45 -33.56762695 41.63012695 C-33.56683736 40.24925863 -33.53869745 38.86822913 -33.48828125 37.48828125 C-33.48120651 36.76005661 -33.47413177 36.03183197 -33.46684265 35.28153992 C-33.43887081 32.95747763 -33.3761365 30.6358327 -33.3125 28.3125 C-33.28742031 26.73636295 -33.26460655 25.16018809 -33.24414062 23.58398438 C-33.18903626 19.72172602 -33.10275228 15.86127268 -33 12 C-32.01 12 -31.02 12 -30 12 C-30 11.34 -30 10.68 -30 10 C-23.60178749 6.23634558 -23.60178749 6.23634558 -20.6328125 5.0703125 C-16.58206329 3.42356876 -12.84290289 1.18903956 -9.03515625 -0.953125 C-5.1367066 -2.297764 -3.71752029 -1.67288413 0 0 Z " fill="#057CEB" transform="translate(239,83)"/>
<path d="M0 0 C0 0.66 0 1.32 0 2 C-1.65 2.33 -3.3 2.66 -5 3 C-5 3.66 -5 4.32 -5 5 C-5.99 5 -6.98 5 -8 5 C-8.268125 5.556875 -8.53625 6.11375 -8.8125 6.6875 C-10 9 -10 9 -11.54719543 11.07548523 C-13.56242477 15.13216848 -13.43990882 18.63269267 -13.43237305 23.10473633 C-13.4425647 24.01254852 -13.45275635 24.92036072 -13.46325684 25.85568237 C-13.49338289 28.84786148 -13.50265227 31.83972041 -13.51171875 34.83203125 C-13.5285657 36.90997888 -13.54671597 38.98791632 -13.56611633 41.06584167 C-13.61362052 46.52872534 -13.6434273 51.99156769 -13.66955566 57.45458984 C-13.69935896 63.03165853 -13.74589013 68.60858485 -13.79101562 74.18554688 C-13.87705359 85.12362346 -13.9443968 96.06172933 -14 107 C-15.32 107 -16.64 107 -18 107 C-18 106.34 -18 105.68 -18 105 C-17.34 105 -16.68 105 -16 105 C-16.02220612 103.81284897 -16.04441223 102.62569794 -16.06729126 101.40257263 C-16.27014743 90.20611388 -16.4199765 79.01002857 -16.51812172 67.81214809 C-16.57027753 62.05521915 -16.64099549 56.2997753 -16.75439453 50.54370117 C-16.86318144 44.98685729 -16.92286829 39.43144001 -16.94877243 33.87361336 C-16.96722754 31.75515339 -17.00326935 29.63677022 -17.05730057 27.51891899 C-17.46385652 10.92062409 -17.46385652 10.92062409 -13.84783936 6.17630005 C-11.26911322 4.32724514 -8.95789396 3.12121764 -6 2 C-5.2742276 1.62318588 -4.5484552 1.24637177 -3.8006897 0.85813904 C-2 0 -2 0 0 0 Z " fill="#4A8BE9" transform="translate(185,65)"/>
<path d="M0 0 C0 0.66 0 1.32 0 2 C-0.99 2.495 -0.99 2.495 -2 3 C-2.02318207 14.37014649 -2.04094502 25.74028734 -2.05181217 37.11045265 C-2.05702815 42.39021261 -2.0641025 47.66995639 -2.07543945 52.94970703 C-2.08631395 58.04604628 -2.09228653 63.14236998 -2.09487724 68.23871994 C-2.09672326 70.18194193 -2.10032805 72.12516309 -2.10573006 74.06837845 C-2.113001 76.79251183 -2.11398838 79.51658112 -2.11352539 82.24072266 C-2.11712067 83.04201599 -2.12071594 83.84330933 -2.12442017 84.66888428 C-2.1166658 88.8922003 -1.8362168 92.83923704 -1 97 C-3.2477975 94.94766315 -4.0022242 93.99332739 -5 91 C-5.10682464 88.1658161 -5.15726045 85.35586093 -5.16113281 82.52124023 C-5.16609772 81.65594696 -5.17106262 80.79065369 -5.17617798 79.8991394 C-5.19078917 77.03561613 -5.1975983 74.17214818 -5.203125 71.30859375 C-5.20887535 69.32227069 -5.2146331 67.33594765 -5.22039795 65.34962463 C-5.23090361 61.18596131 -5.23674977 57.02231729 -5.24023438 52.85864258 C-5.24573175 47.51275195 -5.26978804 42.1671144 -5.29820633 36.82130337 C-5.31678594 32.71990704 -5.3220357 28.6185724 -5.32357025 24.51713753 C-5.32660567 22.54547803 -5.33466389 20.57381984 -5.34775543 18.60220146 C-5.36472559 15.85105676 -5.36295853 13.10054037 -5.35644531 10.34936523 C-5.3656601 9.52905319 -5.37487488 8.70874115 -5.3843689 7.86357117 C-5.36749268 5.59910583 -5.36749268 5.59910583 -5 2 C-2 0 -2 0 0 0 Z " fill="#D5E1F8" transform="translate(155,61)"/>
<path d="M0 0 C4.4377609 1.21029843 7.17112236 2.31938471 10 6 C10.48101807 9.29034424 10.48101807 9.29034424 10.45410156 13.24707031 C10.45468567 13.96941864 10.45526978 14.69176697 10.45587158 15.43600464 C10.4530908 17.81720488 10.42200139 20.1971442 10.390625 22.578125 C10.38316253 24.23149939 10.37746963 25.88488264 10.37347412 27.53826904 C10.3582181 31.88517778 10.31893695 36.23154999 10.2746582 40.57824707 C10.23370458 45.01563255 10.21546294 49.45310492 10.1953125 53.890625 C10.1524423 62.59399593 10.08419184 71.29693118 10 80 C7.525 80.495 7.525 80.495 5 81 C5.495 80.01 5.495 80.01 6 79 C6.66 79 7.32 79 8 79 C8 54.91 8 30.82 8 6 C6.68 5.67 5.36 5.34 4 5 C1.75 3 1.75 3 0 1 C0 0.67 0 0.34 0 0 Z " fill="#6192EA" transform="translate(289,70)"/>
<path d="M0 0 C0.33 0 0.66 0 1 0 C1 31.68 1 63.36 1 96 C-0.98 95.67 -2.96 95.34 -5 95 C-5.33 94.34 -5.66 93.68 -6 93 C-4.35 93 -2.7 93 -1 93 C-0.67 62.31 -0.34 31.62 0 0 Z " fill="#C6D8F7" transform="translate(168,74)"/>
<path d="M0 0 C0.66 0 1.32 0 2 0 C2.33 11.22 2.66 22.44 3 34 C4.32 34.33 5.64 34.66 7 35 C7.99 35.66 8.98 36.32 10 37 C9.67 37.66 9.34 38.32 9 39 C8.01 38.67 7.02 38.34 6 38 C5.67 37.34 5.34 36.68 5 36 C4.1644458 35.6186792 3.3288916 35.2373584 2.46801758 34.84448242 C0 33 0 33 -0.56762695 29.63012695 C-0.56683736 28.24925863 -0.53869745 26.86822913 -0.48828125 25.48828125 C-0.47766914 24.39594429 -0.47766914 24.39594429 -0.46684265 23.28153992 C-0.43887081 20.95747763 -0.3761365 18.6358327 -0.3125 16.3125 C-0.28742031 14.73636295 -0.26460655 13.16018809 -0.24414062 11.58398438 C-0.18903626 7.72172602 -0.10275228 3.86127268 0 0 Z " fill="#5994EB" transform="translate(206,95)"/>
<path d="M0 0 C0.66 0.33 1.32 0.66 2 1 C-2.5 5 -2.5 5 -7 5 C-7.33 5.99 -7.66 6.98 -8 8 C-9.64991582 8.70710678 -11.3207762 9.36562656 -13 10 C-15.01920337 11.30406884 -17.01924973 12.63823419 -19 14 C-23.60714286 17 -23.60714286 17 -27 17 C-27 16.34 -27 15.68 -27 15 C-26.38511719 14.67386719 -25.77023438 14.34773437 -25.13671875 14.01171875 C-24.32847656 13.57472656 -23.52023438 13.13773438 -22.6875 12.6875 C-21.88699219 12.25824219 -21.08648437 11.82898438 -20.26171875 11.38671875 C-18.14714639 10.09021929 -16.72871373 8.74792166 -15 7 C-13.33748154 6.25023677 -11.67112461 5.50625064 -9.9765625 4.83203125 C-7.12038658 3.62972795 -4.42186118 2.14819978 -1.69921875 0.671875 C-1.13847656 0.45015625 -0.57773437 0.2284375 0 0 Z " fill="#266FE2" transform="translate(262,149)"/>
<path d="M0 0 C0.33 0.66 0.66 1.32 1 2 C-13.90410959 12 -13.90410959 12 -21 12 C-14.93075626 6.73998876 -7.82110274 2.05818493 0 0 Z " fill="#578FE7" transform="translate(218,46)"/>
<path d="M0 0 C0.66 0.33 1.32 0.66 2 1 C1.67 1.66 1.34 2.32 1 3 C0.01 3 -0.98 3 -2 3 C-2 3.66 -2 4.32 -2 5 C-13.87562344 11.7786783 -13.87562344 11.7786783 -21 13 C-19.57343486 10.14686972 -17.58951775 9.46279855 -14.8125 7.9375 C-13.87019531 7.41027344 -12.92789062 6.88304687 -11.95703125 6.33984375 C-8.92652002 4.9667059 -6.29026054 4.39483126 -3 4 C-3 3.34 -3 2.68 -3 2 C-2.01 1.34 -1.02 0.68 0 0 Z " fill="#6C99E9" transform="translate(299,169)"/>
<path d="M0 0 C1.32 0 2.64 0 4 0 C4 0.99 4 1.98 4 3 C3.34 3 2.68 3 2 3 C2.33 8.28 2.66 13.56 3 19 C2.01 18.67 1.02 18.34 0 18 C0 12.06 0 6.12 0 0 Z " fill="#1A6BE0" transform="translate(207,152)"/>
<path d="M0 0 C0.99 0.33 1.98 0.66 3 1 C1.02 1.99 1.02 1.99 -1 3 C-1 12.57 -1 22.14 -1 32 C-1.33 32 -1.66 32 -2 32 C-2 21.77 -2 11.54 -2 1 C-1.34 0.67 -0.68 0.34 0 0 Z " fill="#0C6FE4" transform="translate(210,94)"/>
<path d="M0 0 C0 0.66 0 1.32 0 2 C-1.65 2.33 -3.3 2.66 -5 3 C-5 3.66 -5 4.32 -5 5 C-5.99 5 -6.98 5 -8 5 C-8.2475 5.556875 -8.495 6.11375 -8.75 6.6875 C-10.21606015 9.39971127 -12.02989471 11.63587365 -14 14 C-14.3125 11.25 -14.3125 11.25 -14 8 C-10.83041045 4.73436228 -4.70328055 0 0 0 Z " fill="#538DE6" transform="translate(185,65)"/>
<path d="M0 0 C6.97860963 2.01604278 6.97860963 2.01604278 9 5 C9.21714241 7.81127043 9.28284276 10.3883345 9.1875 13.1875 C9.17396484 13.93708984 9.16042969 14.68667969 9.14648438 15.45898438 C9.11118539 17.30629767 9.05737917 19.15324066 9 21 C8.67 21 8.34 21 8 21 C8 16.05 8 11.1 8 6 C6.68 5.67 5.36 5.34 4 5 C1.75 3 1.75 3 0 1 C0 0.67 0 0.34 0 0 Z " fill="#3878E4" transform="translate(289,70)"/>
<path d="M0 0 C4.97209562 1.76429199 9.43438061 4.3939166 14 7 C13.67 7.66 13.34 8.32 13 9 C11.02 8.34 9.04 7.68 7 7 C7 6.34 7 5.68 7 5 C6.01 5 5.02 5 4 5 C3.67 4.34 3.34 3.68 3 3 C2.01 2.67 1.02 2.34 0 2 C0 1.34 0 0.68 0 0 Z " fill="#A4C6F6" transform="translate(278,41)"/>
<path d="M0 0 C4.8274799 1.41292095 8.7162359 3.42974154 13 6 C11 7 11 7 8.65234375 6.328125 C7.75644531 5.97234375 6.86054688 5.6165625 5.9375 5.25 C5.03902344 4.90453125 4.14054688 4.5590625 3.21484375 4.203125 C1 3 1 3 0 0 Z " fill="#518AE5" transform="translate(241,85)"/>
<path d="M0 0 C0.66 0.33 1.32 0.66 2 1 C0.75 3 0.75 3 -1 5 C-2.32 5 -3.64 5 -5 5 C-5.33 5.99 -5.66 6.98 -6 8 C-7.65 8 -9.3 8 -11 8 C-9.66566859 5.33133717 -8.11620897 4.82425634 -5.5 3.4375 C-2.55848713 1.98363365 -2.55848713 1.98363365 0 0 Z " fill="#3C7CE3" transform="translate(230,38)"/>
<path d="M0 0 C0 0.66 0 1.32 0 2 C-2.64738916 3.4606285 -3.89448334 4 -7 4 C-7.33 4.99 -7.66 5.98 -8 7 C-9.32 6.67 -10.64 6.34 -12 6 C-8.25 3 -8.25 3 -6 3 C-6 2.34 -6 1.68 -6 1 C-3.92446352 0.4465236 -2.15634036 0 0 0 Z " fill="#7FB0F3" transform="translate(228,18)"/>
<path d="M0 0 C0 2 0 2 -1.5 3.5625 C-4.9985316 5.57415567 -7.98949133 5.66579094 -12 6 C-9.1490916 2.47828963 -4.56486714 0 0 0 Z " fill="#4585E5" transform="translate(197,59)"/>
<path d="M0 0 C-1.1446875 0.680625 -1.1446875 0.680625 -2.3125 1.375 C-4.23632814 2.53824492 -6.12941224 3.7529415 -8 5 C-8.99 5 -9.98 5 -11 5 C-11 4.34 -11 3.68 -11 3 C-9.73581754 2.30034557 -8.46334598 1.61565237 -7.1875 0.9375 C-6.47980469 0.55464844 -5.77210938 0.17179688 -5.04296875 -0.22265625 C-3 -1 -3 -1 0 0 Z " fill="#2272E2" transform="translate(246,161)"/>
<path d="M0 0 C4.21912747 0.4794463 6.79663178 1.16625119 10 4 C9.67 4.66 9.34 5.32 9 6 C7.68397477 5.38245741 6.37226444 4.75571258 5.0625 4.125 C4.33160156 3.77695313 3.60070312 3.42890625 2.84765625 3.0703125 C1 2 1 2 0 0 Z " fill="#B8CCF3" transform="translate(212,195)"/>
<path d="M0 0 C1.31571603 0.2547514 2.62760376 0.52934141 3.9375 0.8125 C4.66839844 0.96332031 5.39929688 1.11414063 6.15234375 1.26953125 C6.76207031 1.51058594 7.37179688 1.75164062 8 2 C8.33 2.99 8.66 3.98 9 5 C8.01 5.495 8.01 5.495 7 6 C4.5249829 4.88568235 2.32116581 3.41849022 0 2 C0 1.34 0 0.68 0 0 Z " fill="#447FE3" transform="translate(212,154)"/>
<path d="M0 0 C0.33 0.66 0.66 1.32 1 2 C0 4 0 4 -1.84765625 4.6328125 C-2.94400391 4.87644531 -2.94400391 4.87644531 -4.0625 5.125 C-4.79597656 5.29257813 -5.52945312 5.46015625 -6.28515625 5.6328125 C-6.85105469 5.75398437 -7.41695313 5.87515625 -8 6 C-8 5.34 -8 4.68 -8 4 C-5.36 2.68 -2.72 1.36 0 0 Z " fill="#6B9AE9" transform="translate(276,140)"/>
<path d="M0 0 C1.98 0.66 3.96 1.32 6 2 C6 2.66 6 3.32 6 4 C7.32 4.33 8.64 4.66 10 5 C8.375 5.75 8.375 5.75 6 6 C2.75 4.1875 2.75 4.1875 0 2 C0 1.34 0 0.68 0 0 Z " fill="#3B7DE4" transform="translate(268,58)"/>
<path d="M0 0 C-3.28804981 2.91227269 -5.59885603 4.49701212 -10 5 C-10 4.01 -10 3.02 -10 2 C-8.71211992 1.46987262 -7.41953322 0.9511671 -6.125 0.4375 C-5.40570313 0.14746094 -4.68640625 -0.14257812 -3.9453125 -0.44140625 C-2 -1 -2 -1 0 0 Z " fill="#6DA8F2" transform="translate(188,42)"/>
<path d="M0 0 C-2.25 2.0625 -2.25 2.0625 -5 4 C-7.3125 3.75 -7.3125 3.75 -9 3 C-6.38220849 -0.01046024 -3.86655673 -1.93327837 0 0 Z " fill="#4985E5" transform="translate(253,156)"/>
<path d="M0 0 C3.3 1.65 6.6 3.3 10 5 C9.01 5.495 9.01 5.495 8 6 C4.4375 4.75 4.4375 4.75 1 3 C0.67 2.01 0.34 1.02 0 0 Z " fill="#3D7CE3" transform="translate(248,46)"/>
<path d="M0 0 C3.77545388 1.09068668 6.47043472 1.9083091 9 5 C5.26512223 4.5020163 3.18762365 4.12508244 0 2 C0 1.34 0 0.68 0 0 Z " fill="#397EE3" transform="translate(223,160)"/>
<path d="M0 0 C4.83256305 0.41421969 6.82679218 2.46413986 10 6 C6.66666667 4.33333333 3.33333333 2.66666667 0 1 C0 0.67 0 0.34 0 0 Z " fill="#A3BCEF" transform="translate(235,38)"/>
<path d="M0 0 C0.66 0.33 1.32 0.66 2 1 C1.01 2.32 0.02 3.64 -1 5 C-2.32 4.67 -3.64 4.34 -5 4 C-3 1 -3 1 0 0 Z " fill="#5D94E7" transform="translate(308,164)"/>
</svg>
